<svg xmlns="http://www.w3.org/2000/svg" viewBox="0 0 128 128" width="128" height="128">
  <!-- Three-pointed flame - style 1 -->
  <rect width="128" height="128" rx="20" fill="#1E1E2E"/>

  <!-- Main flame with 3 points -->
  <path d="M64 114 C40 114 26 94 26 74 C26 58 34 46 42 34 C46 28 48 20 52 12 C56 22 54 32 58 38 C62 30 64 18 68 8 C72 18 70 30 74 38 C78 32 76 22 80 12 C84 20 86 28 90 34 C98 46 106 58 106 74 C106 94 92 114 64 114 Z" fill="#E86A5A"/>

  <!-- Inner yellow flame -->
  <path d="M64 108 C48 108 38 92 38 76 C38 64 44 54 50 46 C54 50 52 58 56 62 C60 54 62 44 66 38 C70 48 68 56 72 62 C76 56 74 48 78 46 C84 54 90 64 90 76 C90 92 80 108 64 108 Z" fill="#F4B860"/>

  <!-- Face -->
  <circle cx="52" cy="80" r="5" fill="#1E1E2E"/>
  <circle cx="76" cy="80" r="5" fill="#1E1E2E"/>
  <circle cx="53" cy="79" r="1.5" fill="white"/>
  <circle cx="77" cy="79" r="1.5" fill="white"/>
  <path d="M56 94 Q64 100 72 94" stroke="#1E1E2E" stroke-width="3" fill="none" stroke-linecap="round"/>
</svg>
