<svg xmlns="http://www.w3.org/2000/svg" viewBox="0 0 128 128" width="128" height="128">
  <!-- Organic natural flame shape -->
  <rect width="128" height="128" rx="20" fill="#1E1E2E"/>

  <!-- Main flame - organic curves -->
  <path d="M64 8 C58 16 48 28 44 42 C38 60 32 70 32 84 C32 102 46 116 64 116 C82 116 96 102 96 84 C96 70 90 58 86 44 C82 32 76 20 64 8 Z" fill="#FF6B35"/>

  <!-- Inner flame -->
  <path d="M64 24 C60 30 52 40 50 52 C46 66 42 74 42 84 C42 96 52 106 64 106 C76 106 86 96 86 84 C86 74 82 66 78 52 C76 40 70 32 64 24 Z" fill="#FF8C42"/>

  <!-- Core glow -->
  <ellipse cx="64" cy="82" rx="18" ry="20" fill="#FFB347"/>

  <!-- Highlight -->
  <ellipse cx="52" cy="62" rx="12" ry="16" fill="#FFD580" opacity="0.65"/>

  <!-- Face -->
  <circle cx="52" cy="78" r="5" fill="#1E1E2E"/>
  <circle cx="76" cy="78" r="5" fill="#1E1E2E"/>
  <circle cx="53" cy="77" r="1.5" fill="white"/>
  <circle cx="77" cy="77" r="1.5" fill="white"/>
  <path d="M56 92 Q64 98 72 92" stroke="#1E1E2E" stroke-width="3" fill="none" stroke-linecap="round"/>
</svg>
