<svg xmlns="http://www.w3.org/2000/svg" viewBox="0 0 128 128" width="128" height="128">
  <!-- Tall narrow flame -->
  <rect width="128" height="128" rx="20" fill="#1E1E2E"/>

  <!-- Main flame - taller, narrower -->
  <path d="M64 4 C64 4 42 40 40 64 C38 88 48 116 64 116 C80 116 90 88 88 64 C86 40 64 4 64 4 Z" fill="#FF6B35"/>

  <!-- Inner flame -->
  <path d="M64 18 C64 18 48 48 46 68 C44 88 52 108 64 108 C76 108 84 88 82 68 C80 48 64 18 64 18 Z" fill="#FF8C42"/>

  <!-- Core -->
  <ellipse cx="64" cy="80" rx="14" ry="22" fill="#FFB347"/>

  <!-- Highlight -->
  <ellipse cx="56" cy="58" rx="8" ry="16" fill="#FFD580" opacity="0.65"/>

  <!-- Face -->
  <circle cx="54" cy="76" r="5" fill="#1E1E2E"/>
  <circle cx="74" cy="76" r="5" fill="#1E1E2E"/>
  <circle cx="55" cy="75" r="1.5" fill="white"/>
  <circle cx="75" cy="75" r="1.5" fill="white"/>
  <path d="M58 90 Q64 96 70 90" stroke="#1E1E2E" stroke-width="3" fill="none" stroke-linecap="round"/>
</svg>
