<svg xmlns="http://www.w3.org/2000/svg" viewBox="0 0 128 128" width="128" height="128">
  <!-- Compact centered flame -->
  <rect width="128" height="128" rx="20" fill="#1E1E2E"/>

  <!-- Main flame - compact, centered -->
  <path d="M64 16 C64 16 40 48 40 72 C40 96 52 112 64 112 C76 112 88 96 88 72 C88 48 64 16 64 16 Z" fill="#FF6B35"/>

  <!-- Inner flame -->
  <path d="M64 32 C64 32 48 56 48 74 C48 92 56 104 64 104 C72 104 80 92 80 74 C80 56 64 32 64 32 Z" fill="#FF8C42"/>

  <!-- Core -->
  <ellipse cx="64" cy="78" rx="14" ry="18" fill="#FFB347"/>

  <!-- Highlight -->
  <ellipse cx="56" cy="60" rx="8" ry="14" fill="#FFD580" opacity="0.7"/>

  <!-- Face - centered -->
  <circle cx="56" cy="74" r="4" fill="#1E1E2E"/>
  <circle cx="72" cy="74" r="4" fill="#1E1E2E"/>
  <circle cx="57" cy="73" r="1.2" fill="white"/>
  <circle cx="73" cy="73" r="1.2" fill="white"/>
  <path d="M58 86 Q64 90 70 86" stroke="#1E1E2E" stroke-width="2.5" fill="none" stroke-linecap="round"/>
</svg>
