<svg xmlns="http://www.w3.org/2000/svg" viewBox="0 0 128 128" width="128" height="128">
  <!-- Three-pointed flame - balanced proportions -->
  <rect width="128" height="128" rx="20" fill="#1E1E2E"/>

  <!-- Main flame - balanced three points -->
  <path d="M64 114 C38 114 24 92 24 70 C24 54 32 44 40 32 C44 26 46 18 48 12 C54 22 52 32 56 40 C58 30 62 18 64 10 C66 18 70 30 72 40 C76 32 74 22 80 12 C82 18 84 26 88 32 C96 44 104 54 104 70 C104 92 90 114 64 114 Z" fill="#E86A5A"/>

  <!-- Inner yellow -->
  <path d="M64 106 C46 106 36 88 36 72 C36 60 42 52 48 44 C52 52 52 60 56 66 C58 58 60 48 64 40 C68 48 70 58 72 66 C76 60 76 52 80 44 C86 52 92 60 92 72 C92 88 82 106 64 106 Z" fill="#F4B860"/>

  <!-- Face -->
  <circle cx="52" cy="78" r="5" fill="#1E1E2E"/>
  <circle cx="76" cy="78" r="5" fill="#1E1E2E"/>
  <circle cx="53" cy="77" r="1.5" fill="white"/>
  <circle cx="77" cy="77" r="1.5" fill="white"/>
  <path d="M56 92 Q64 98 72 92" stroke="#1E1E2E" stroke-width="3" fill="none" stroke-linecap="round"/>
</svg>
