<svg xmlns="http://www.w3.org/2000/svg" viewBox="0 0 128 128" width="128" height="128">
  <defs>
    <linearGradient id="phoenixBody" x1="0%" y1="100%" x2="0%" y2="0%">
      <stop offset="0%" stop-color="#FF4500"/>
      <stop offset="50%" stop-color="#FF6B35"/>
      <stop offset="100%" stop-color="#FF8C42"/>
    </linearGradient>
    <linearGradient id="phoenixWing" x1="0%" y1="0%" x2="100%" y2="100%">
      <stop offset="0%" stop-color="#FFD93D"/>
      <stop offset="50%" stop-color="#FF8C42"/>
      <stop offset="100%" stop-color="#FF4500"/>
    </linearGradient>
  </defs>

  <!-- Background -->
  <rect width="128" height="128" rx="16" fill="#1A0A2E"/>

  <!-- Left wing -->
  <path d="M10 50 C15 35 25 25 40 30 C30 40 25 55 35 65 C20 60 10 55 10 50 Z" fill="url(#phoenixWing)"/>
  <path d="M15 60 C20 50 30 45 40 50 C32 55 28 65 35 72 C22 68 15 65 15 60 Z" fill="#FFD93D"/>

  <!-- Right wing -->
  <path d="M118 50 C113 35 103 25 88 30 C98 40 103 55 93 65 C108 60 118 55 118 50 Z" fill="url(#phoenixWing)"/>
  <path d="M113 60 C108 50 98 45 88 50 C96 55 100 65 93 72 C106 68 113 65 113 60 Z" fill="#FFD93D"/>

  <!-- Body -->
  <ellipse cx="64" cy="70" rx="24" ry="30" fill="url(#phoenixBody)"/>

  <!-- Head -->
  <circle cx="64" cy="42" r="18" fill="#FF8C42"/>

  <!-- Beak -->
  <path d="M64 50 L58 58 L64 55 L70 58 Z" fill="#FFD93D"/>

  <!-- Eyes -->
  <ellipse cx="56" cy="40" rx="4" ry="5" fill="white"/>
  <ellipse cx="72" cy="40" rx="4" ry="5" fill="white"/>
  <circle cx="57" cy="41" r="2" fill="#1A0A2E"/>
  <circle cx="73" cy="41" r="2" fill="#1A0A2E"/>

  <!-- Crown flames -->
  <path d="M50 28 C48 20 52 14 54 20 C54 16 58 12 58 18 C60 12 64 16 62 22 L56 28 Z" fill="#FFD93D"/>
  <path d="M60 24 C58 14 62 8 66 16 C66 10 72 6 72 14 C76 8 80 12 76 20 L68 26 Z" fill="#FFEB99"/>
  <path d="M72 28 C70 20 74 14 76 20 C76 16 80 12 80 18 C82 12 86 16 84 22 L78 28 Z" fill="#FFD93D"/>

  <!-- Tail feathers -->
  <path d="M50 95 C45 105 40 115 35 118 C42 112 48 108 54 100 Z" fill="#FF6B35"/>
  <path d="M64 98 C64 110 64 118 64 122 C68 116 68 108 68 100 Z" fill="#FFD93D"/>
  <path d="M78 95 C83 105 88 115 93 118 C86 112 80 108 74 100 Z" fill="#FF6B35"/>

  <!-- Sparkles -->
  <circle cx="24" cy="38" r="2" fill="#FFEB99"/>
  <circle cx="104" cy="38" r="2" fill="#FFEB99"/>
  <circle cx="40" cy="20" r="1.5" fill="#FFD93D"/>
  <circle cx="88" cy="20" r="1.5" fill="#FFD93D"/>
</svg>
