<svg xmlns="http://www.w3.org/2000/svg" viewBox="0 0 128 128" width="128" height="128">
  <defs>
    <linearGradient id="salamanderBody" x1="0%" y1="0%" x2="100%" y2="100%">
      <stop offset="0%" stop-color="#FF6B35"/>
      <stop offset="100%" stop-color="#FF4500"/>
    </linearGradient>
  </defs>

  <!-- Background -->
  <rect width="128" height="128" rx="16" fill="#16213E"/>

  <!-- Tail with flame -->
  <path d="M100 75 C108 72 116 76 120 70 C118 78 124 82 118 86 C114 80 108 82 104 78" fill="#FFD93D"/>
  <path d="M85 72 Q100 68 100 75 Q100 82 85 78 Z" fill="url(#salamanderBody)"/>

  <!-- Body -->
  <ellipse cx="58" cy="75" rx="35" ry="18" fill="url(#salamanderBody)"/>

  <!-- Head -->
  <ellipse cx="28" cy="68" rx="20" ry="16" fill="#FF6B35"/>

  <!-- Snout -->
  <ellipse cx="14" cy="70" rx="8" ry="6" fill="#FF8C42"/>

  <!-- Eyes -->
  <ellipse cx="28" cy="62" rx="7" ry="8" fill="white"/>
  <ellipse cx="40" cy="64" rx="6" ry="7" fill="white"/>
  <circle cx="29" cy="63" r="3" fill="#16213E"/>
  <circle cx="41" cy="65" r="2.5" fill="#16213E"/>
  <circle cx="30" cy="62" r="1" fill="white"/>
  <circle cx="42" cy="64" r="1" fill="white"/>

  <!-- Nostrils -->
  <circle cx="10" cy="68" r="1.5" fill="#E85D2B"/>
  <circle cx="10" cy="72" r="1.5" fill="#E85D2B"/>

  <!-- Orange spots pattern -->
  <circle cx="45" cy="70" r="5" fill="#FFD93D"/>
  <circle cx="60" cy="72" r="4" fill="#FFD93D"/>
  <circle cx="75" cy="70" r="5" fill="#FFD93D"/>
  <circle cx="52" cy="80" r="3" fill="#FF8C42"/>
  <circle cx="68" cy="78" r="3" fill="#FF8C42"/>

  <!-- Front legs -->
  <path d="M35 88 L30 100 L26 98 L32 88" fill="url(#salamanderBody)"/>
  <path d="M50 88 L48 100 L44 98 L46 88" fill="url(#salamanderBody)"/>
  <ellipse cx="28" cy="100" rx="6" ry="3" fill="#FF4500"/>
  <ellipse cx="46" cy="100" rx="6" ry="3" fill="#FF4500"/>

  <!-- Back legs -->
  <path d="M70 85 L72 98 L68 100 L66 87" fill="url(#salamanderBody)"/>
  <path d="M82 82 L88 96 L84 98 L80 84" fill="url(#salamanderBody)"/>
  <ellipse cx="70" cy="100" rx="5" ry="3" fill="#FF4500"/>
  <ellipse cx="86" cy="98" rx="5" ry="3" fill="#FF4500"/>

  <!-- Fire breath hint -->
  <path d="M6 64 C2 60 4 56 8 60 C6 56 10 54 10 58" fill="#FFD93D" opacity="0.8"/>

  <!-- Sparkles -->
  <circle cx="114" cy="60" r="2" fill="#FFD93D"/>
  <circle cx="108" cy="50" r="1.5" fill="#FFEB99"/>
  <circle cx="20" cy="45" r="2" fill="#FF8C42"/>
</svg>
