<svg xmlns="http://www.w3.org/2000/svg" viewBox="0 0 128 128" width="128" height="128">
  <!-- Clean flame mascot - Bun-style simplicity -->

  <!-- Warm cream background -->
  <rect width="128" height="128" rx="20" fill="#FFF4E6"/>

  <!-- Main flame body - simple teardrop -->
  <path d="M64 108 C36 108 24 84 24 64 C24 44 40 24 64 16 C88 24 104 44 104 64 C104 84 92 108 64 108 Z" fill="#FF6B35"/>

  <!-- Inner flame highlight -->
  <path d="M64 96 C44 96 36 78 36 62 C36 48 48 34 64 28 C80 34 92 48 92 62 C92 78 84 96 64 96 Z" fill="#FF8C42"/>

  <!-- Core highlight -->
  <ellipse cx="64" cy="70" rx="20" ry="24" fill="#FFB347"/>

  <!-- Simple eyes - two dots -->
  <circle cx="50" cy="62" r="6" fill="#1a1a2e"/>
  <circle cx="78" cy="62" r="6" fill="#1a1a2e"/>

  <!-- Eye highlights -->
  <circle cx="52" cy="60" r="2" fill="white"/>
  <circle cx="80" cy="60" r="2" fill="white"/>

  <!-- Simple confident smile -->
  <path d="M52 78 Q64 86 76 78" stroke="#1a1a2e" stroke-width="4" fill="none" stroke-linecap="round"/>
</svg>
