<svg xmlns="http://www.w3.org/2000/svg" viewBox="0 0 128 128" width="128" height="128">
  <!-- Three-pointed flame - exact reference colors -->
  <rect width="128" height="128" rx="20" fill="#1E1E2E"/>

  <!-- Main flame - coral like reference -->
  <path d="M64 116 C36 116 20 92 20 68 C20 52 28 40 38 28 C42 22 44 14 46 8 C52 18 50 30 54 38 C56 28 60 16 64 6 C68 16 72 28 74 38 C78 30 76 18 82 8 C84 14 86 22 90 28 C100 40 108 52 108 68 C108 92 92 116 64 116 Z" fill="#E07A5F"/>

  <!-- Inner yellow - golden like reference -->
  <path d="M64 108 C46 108 34 88 34 70 C34 58 40 50 48 42 C52 50 52 58 56 64 C58 56 60 46 64 38 C68 46 70 56 72 64 C76 58 76 50 80 42 C88 50 94 58 94 70 C94 88 82 108 64 108 Z" fill="#F2CC8F"/>

  <!-- Face -->
  <circle cx="52" cy="76" r="5" fill="#1E1E2E"/>
  <circle cx="76" cy="76" r="5" fill="#1E1E2E"/>
  <circle cx="53" cy="75" r="1.5" fill="white"/>
  <circle cx="77" cy="75" r="1.5" fill="white"/>
  <path d="M56 90 Q64 98 72 90" stroke="#1E1E2E" stroke-width="3" fill="none" stroke-linecap="round"/>
</svg>
