<svg xmlns="http://www.w3.org/2000/svg" viewBox="0 0 128 128" width="128" height="128">
  <!-- Three-pointed flame - cream background -->
  <rect width="128" height="128" rx="20" fill="#FEF3E2"/>

  <!-- Shadow -->
  <ellipse cx="68" cy="114" rx="32" ry="6" fill="#E86A5A" opacity="0.15"/>

  <!-- Main flame -->
  <path d="M64 112 C38 112 24 90 24 68 C24 52 32 42 40 30 C44 24 46 16 48 10 C54 20 52 30 56 38 C58 28 62 18 64 8 C66 18 70 28 72 38 C76 30 74 20 80 10 C82 16 84 24 88 30 C96 42 104 52 104 68 C104 90 90 112 64 112 Z" fill="#E86A5A"/>

  <!-- Inner yellow -->
  <path d="M64 104 C46 104 36 86 36 70 C36 58 42 50 48 42 C52 50 52 58 56 64 C58 56 60 46 64 38 C68 46 70 56 72 64 C76 58 76 50 80 42 C86 50 92 58 92 70 C92 86 82 104 64 104 Z" fill="#F4B860"/>

  <!-- Face -->
  <circle cx="52" cy="76" r="5" fill="#8B4513"/>
  <circle cx="76" cy="76" r="5" fill="#8B4513"/>
  <circle cx="53" cy="75" r="1.5" fill="white"/>
  <circle cx="77" cy="75" r="1.5" fill="white"/>
  <path d="M56 90 Q64 96 72 90" stroke="#8B4513" stroke-width="3" fill="none" stroke-linecap="round"/>
</svg>
