<svg xmlns="http://www.w3.org/2000/svg" viewBox="0 0 128 128" width="128" height="128">
  <!-- Hexagon flame - geometric dev aesthetic -->

  <!-- Dark purple background -->
  <rect width="128" height="128" rx="20" fill="#1E1E2E"/>

  <!-- Hexagon container -->
  <polygon points="64,8 112,36 112,92 64,120 16,92 16,36" fill="#2D2D44" stroke="#FF6B35" stroke-width="3"/>

  <!-- Flame inside hexagon -->
  <path d="M64 100 C44 100 34 82 34 66 C34 50 46 36 54 30 C54 40 60 44 64 40 C60 50 64 54 70 50 C74 54 82 60 82 74 C82 88 74 100 64 100 Z" fill="#FF6B35"/>

  <!-- Inner flame -->
  <path d="M64 90 C50 90 44 78 44 66 C44 54 52 44 58 40 C58 48 62 50 64 48 C62 54 64 56 68 54 C70 56 76 60 76 70 C76 82 70 90 64 90 Z" fill="#FF8C42"/>

  <!-- Core -->
  <ellipse cx="64" cy="72" rx="14" ry="16" fill="#FFD93D"/>

  <!-- Simple face -->
  <circle cx="56" cy="68" r="4" fill="#1E1E2E"/>
  <circle cx="72" cy="68" r="4" fill="#1E1E2E"/>
  <circle cx="57" cy="67" r="1.5" fill="white"/>
  <circle cx="73" cy="67" r="1.5" fill="white"/>
  <path d="M58 80 Q64 84 70 80" stroke="#1E1E2E" stroke-width="2.5" fill="none" stroke-linecap="round"/>
</svg>
