<svg xmlns="http://www.w3.org/2000/svg" viewBox="0 0 128 128" width="128" height="128">
  <!-- Three-pointed flame - larger face area -->
  <rect width="128" height="128" rx="20" fill="#1E1E2E"/>

  <!-- Main flame -->
  <path d="M64 118 C34 118 18 92 18 68 C18 50 28 38 38 26 C42 20 44 12 46 6 C52 16 50 28 54 36 C56 26 60 14 64 4 C68 14 72 26 74 36 C78 28 76 16 82 6 C84 12 86 20 90 26 C100 38 110 50 110 68 C110 92 94 118 64 118 Z" fill="#E86A5A"/>

  <!-- Inner yellow - bigger for face -->
  <path d="M64 112 C42 112 28 90 28 70 C28 56 36 46 44 38 C48 46 48 56 52 62 C54 54 58 42 64 32 C70 42 74 54 76 62 C80 56 80 46 84 38 C92 46 100 56 100 70 C100 90 86 112 64 112 Z" fill="#F4B860"/>

  <!-- Face - slightly larger -->
  <circle cx="50" cy="78" r="6" fill="#1E1E2E"/>
  <circle cx="78" cy="78" r="6" fill="#1E1E2E"/>
  <circle cx="51" cy="77" r="2" fill="white"/>
  <circle cx="79" cy="77" r="2" fill="white"/>
  <path d="M54 94 Q64 102 74 94" stroke="#1E1E2E" stroke-width="3.5" fill="none" stroke-linecap="round"/>
</svg>
