<svg xmlns="http://www.w3.org/2000/svg" viewBox="0 0 128 128" width="128" height="128">
  <!-- Chilli pepper - dark background -->

  <rect width="128" height="128" rx="20" fill="#1E1E2E"/>

  <!-- Stem -->
  <path d="M60 22 C56 18 60 12 66 14 C72 12 76 18 72 22 L70 30 L62 30 Z" fill="#2E8B57"/>

  <!-- Chilli body - upright -->
  <path d="M66 30 C46 30 34 46 30 70 C26 94 38 108 54 110 C70 112 84 102 90 76 C96 50 86 30 66 30 Z" fill="#DC143C"/>

  <!-- Inner -->
  <path d="M66 38 C52 38 44 50 40 70 C36 90 46 100 58 102 C70 104 78 96 82 76 C86 56 80 38 66 38 Z" fill="#FF3B3B"/>

  <!-- Shine -->
  <ellipse cx="50" cy="56" rx="8" ry="14" fill="#FF6B6B" opacity="0.6"/>

  <!-- Face -->
  <circle cx="52" cy="70" r="5" fill="#1E1E2E"/>
  <circle cx="74" cy="66" r="5" fill="#1E1E2E"/>
  <circle cx="53" cy="69" r="1.5" fill="white"/>
  <circle cx="75" cy="65" r="1.5" fill="white"/>

  <path d="M54 84 Q64 90 74 82" stroke="#1E1E2E" stroke-width="3" fill="none" stroke-linecap="round"/>

  <!-- Heat lines -->
  <path d="M96 50 Q100 44 96 38" stroke="#FF6B35" stroke-width="2" fill="none" stroke-linecap="round" opacity="0.7"/>
  <path d="M102 56 Q106 48 102 40" stroke="#FF6B35" stroke-width="2" fill="none" stroke-linecap="round" opacity="0.5"/>
</svg>
