<svg xmlns="http://www.w3.org/2000/svg" viewBox="0 0 128 128" width="128" height="128">
  <!-- Simple flame - no face -->
  <rect width="128" height="128" rx="20" fill="#1E1E2E"/>

  <!-- Main flame -->
  <path d="M64 10 C64 10 36 48 36 74 C36 98 48 114 64 114 C80 114 92 98 92 74 C92 48 64 10 64 10 Z" fill="#FF6B35"/>

  <!-- Inner flame -->
  <path d="M64 28 C64 28 44 56 44 76 C44 94 54 106 64 106 C74 106 84 94 84 76 C84 56 64 28 64 28 Z" fill="#FF8C42"/>

  <!-- Core -->
  <ellipse cx="64" cy="78" rx="16" ry="22" fill="#FFB347"/>

  <!-- Highlights -->
  <ellipse cx="52" cy="58" rx="10" ry="18" fill="#FFD580" opacity="0.7"/>
  <ellipse cx="50" cy="50" rx="5" ry="8" fill="#FFEBA0" opacity="0.5"/>
</svg>
