<svg xmlns="http://www.w3.org/2000/svg" viewBox="0 0 128 128" width="128" height="128">
  <!-- Three-pointed flame - sharper points -->
  <rect width="128" height="128" rx="20" fill="#1E1E2E"/>

  <!-- Main flame - sharp defined points -->
  <path d="M64 116 C38 116 24 92 24 72 C24 58 30 48 38 38 L48 14 L56 42 L64 6 L72 42 L80 14 L90 38 C98 48 104 58 104 72 C104 92 90 116 64 116 Z" fill="#E86A5A"/>

  <!-- Inner yellow flame -->
  <path d="M64 106 C46 106 36 88 36 72 C36 62 40 54 46 46 L52 30 L58 50 L64 22 L70 50 L76 30 L82 46 C88 54 92 62 92 72 C92 88 82 106 64 106 Z" fill="#F4B860"/>

  <!-- Face -->
  <circle cx="52" cy="78" r="5" fill="#1E1E2E"/>
  <circle cx="76" cy="78" r="5" fill="#1E1E2E"/>
  <circle cx="53" cy="77" r="1.5" fill="white"/>
  <circle cx="77" cy="77" r="1.5" fill="white"/>
  <path d="M56 92 Q64 98 72 92" stroke="#1E1E2E" stroke-width="3" fill="none" stroke-linecap="round"/>
</svg>
