<svg xmlns="http://www.w3.org/2000/svg" viewBox="0 0 128 128" width="128" height="128">
  <!-- Flickering flame with movement -->
  <rect width="128" height="128" rx="20" fill="#1E1E2E"/>

  <!-- Main flame - asymmetric flicker -->
  <path d="M58 10 C52 22 44 36 42 52 C38 72 34 86 42 100 C50 112 78 114 88 102 C98 88 94 70 88 52 C84 38 78 26 70 14 C66 24 62 20 58 10 Z" fill="#FF6B35"/>

  <!-- Inner flame -->
  <path d="M60 28 C56 38 50 48 48 60 C44 76 44 88 50 98 C56 106 74 106 82 98 C90 88 88 74 84 58 C82 48 78 40 72 30 C68 38 64 34 60 28 Z" fill="#FF8C42"/>

  <!-- Core -->
  <ellipse cx="66" cy="80" rx="18" ry="20" fill="#FFB347"/>

  <!-- Highlight -->
  <ellipse cx="54" cy="64" rx="10" ry="14" fill="#FFD580" opacity="0.6"/>

  <!-- Face -->
  <circle cx="54" cy="76" r="5" fill="#1E1E2E"/>
  <circle cx="78" cy="76" r="5" fill="#1E1E2E"/>
  <circle cx="55" cy="75" r="1.5" fill="white"/>
  <circle cx="79" cy="75" r="1.5" fill="white"/>
  <path d="M58 90 Q66 96 76 90" stroke="#1E1E2E" stroke-width="3" fill="none" stroke-linecap="round"/>
</svg>
