<svg xmlns="http://www.w3.org/2000/svg" viewBox="0 0 128 128" width="128" height="128">
  <!-- Three-pointed flame - more compact -->
  <rect width="128" height="128" rx="20" fill="#1E1E2E"/>

  <!-- Main flame - compact -->
  <path d="M64 112 C40 112 28 90 28 70 C28 56 34 46 42 36 C46 30 46 22 48 16 C54 24 52 34 56 40 C58 32 60 22 64 14 C68 22 70 32 72 40 C76 34 74 24 80 16 C82 22 82 30 86 36 C94 46 100 56 100 70 C100 90 88 112 64 112 Z" fill="#E86A5A"/>

  <!-- Inner yellow -->
  <path d="M64 104 C48 104 38 88 38 72 C38 62 42 54 48 46 C52 52 52 58 56 62 C58 56 60 48 64 42 C68 48 70 56 72 62 C76 58 76 52 80 46 C86 54 90 62 90 72 C90 88 80 104 64 104 Z" fill="#F4B860"/>

  <!-- Face -->
  <circle cx="52" cy="76" r="4.5" fill="#1E1E2E"/>
  <circle cx="76" cy="76" r="4.5" fill="#1E1E2E"/>
  <circle cx="53" cy="75" r="1.4" fill="white"/>
  <circle cx="77" cy="75" r="1.4" fill="white"/>
  <path d="M56 88 Q64 94 72 88" stroke="#1E1E2E" stroke-width="2.5" fill="none" stroke-linecap="round"/>
</svg>
