<svg xmlns="http://www.w3.org/2000/svg" viewBox="0 0 128 128" width="128" height="128">
  <!-- Background with gradient -->
  <defs>
    <linearGradient id="bgGrad" x1="0%" y1="0%" x2="100%" y2="100%">
      <stop offset="0%" stop-color="#1a1a2e"/>
      <stop offset="100%" stop-color="#16213e"/>
    </linearGradient>
    <linearGradient id="textFlame" x1="0%" y1="100%" x2="0%" y2="0%">
      <stop offset="0%" stop-color="#FF4500"/>
      <stop offset="40%" stop-color="#FF6B35"/>
      <stop offset="70%" stop-color="#FF8C42"/>
      <stop offset="100%" stop-color="#FFD93D"/>
    </linearGradient>
  </defs>

  <rect width="128" height="128" rx="16" fill="url(#bgGrad)"/>

  <!-- L letter -->
  <path d="M24 30 L24 85 L50 85 L50 75 L36 75 L36 30 Z" fill="url(#textFlame)"/>

  <!-- H letter -->
  <path d="M58 30 L58 85 L70 85 L70 62 L90 62 L90 85 L102 85 L102 30 L90 30 L90 50 L70 50 L70 30 Z" fill="url(#textFlame)"/>

  <!-- Flames on top of letters -->
  <path d="M28 30 C26 22 30 16 32 22 C32 18 36 14 36 20 C38 14 42 18 40 24 L34 30 Z" fill="#FFD93D"/>
  <path d="M62 30 C60 20 64 12 68 20 C68 14 74 10 74 18 C78 12 84 16 80 24 L70 30 Z" fill="#FFD93D"/>
  <path d="M94 30 C92 22 96 16 98 22 C98 18 102 14 102 20 C104 14 108 18 106 24 L100 30 Z" fill="#FFD93D"/>

  <!-- Sparkles -->
  <circle cx="20" cy="20" r="2" fill="#FFD93D"/>
  <circle cx="108" cy="24" r="1.5" fill="#FF8C42"/>
  <circle cx="52" cy="18" r="1.5" fill="#FFEB99"/>
  <circle cx="85" cy="16" r="2" fill="#FFD93D"/>
</svg>
