<svg xmlns="http://www.w3.org/2000/svg" viewBox="0 0 128 128" width="128" height="128">
  <!-- Teardrop flame - inverted drop -->
  <rect width="128" height="128" rx="20" fill="#1E1E2E"/>

  <!-- Main flame - teardrop pointing up -->
  <path d="M64 10 C54 10 34 40 34 70 C34 94 48 114 64 114 C80 114 94 94 94 70 C94 40 74 10 64 10 Z" fill="#FF6B35"/>

  <!-- Inner -->
  <path d="M64 22 C56 22 42 46 42 70 C42 90 52 106 64 106 C76 106 86 90 86 70 C86 46 72 22 64 22 Z" fill="#FF8C42"/>

  <!-- Highlight -->
  <ellipse cx="52" cy="58" rx="12" ry="18" fill="#FFB347" opacity="0.8"/>

  <!-- Face -->
  <circle cx="50" cy="72" r="5" fill="#1E1E2E"/>
  <circle cx="78" cy="72" r="5" fill="#1E1E2E"/>
  <circle cx="51" cy="71" r="1.5" fill="white"/>
  <circle cx="79" cy="71" r="1.5" fill="white"/>
  <path d="M54 86 Q64 92 74 86" stroke="#1E1E2E" stroke-width="3" fill="none" stroke-linecap="round"/>
</svg>
