<svg xmlns="http://www.w3.org/2000/svg" viewBox="0 0 128 128" width="128" height="128">
  <!-- Background -->
  <rect width="128" height="128" rx="16" fill="#1E1E2E"/>

  <!-- Code brackets -->
  <path d="M30 40 L18 64 L30 88" stroke="#6C7086" stroke-width="6" stroke-linecap="round" stroke-linejoin="round" fill="none"/>
  <path d="M98 40 L110 64 L98 88" stroke="#6C7086" stroke-width="6" stroke-linecap="round" stroke-linejoin="round" fill="none"/>

  <!-- Central flame -->
  <path d="M64 95 C45 95 38 78 38 65 C38 52 48 42 52 38 C52 48 58 52 62 48 C58 58 62 62 68 58 C72 62 78 65 78 75 C78 82 74 88 64 95 Z" fill="url(#flameGrad1)"/>
  <path d="M64 90 C52 90 48 78 48 70 C48 62 54 55 56 52 C56 58 60 60 62 58 C60 64 62 66 66 64 C68 66 72 68 72 74 C72 80 70 85 64 90 Z" fill="url(#flameGrad2)"/>

  <defs>
    <linearGradient id="flameGrad1" x1="0%" y1="100%" x2="0%" y2="0%">
      <stop offset="0%" stop-color="#FF6B35"/>
      <stop offset="50%" stop-color="#FF8C42"/>
      <stop offset="100%" stop-color="#FFD93D"/>
    </linearGradient>
    <linearGradient id="flameGrad2" x1="0%" y1="100%" x2="0%" y2="0%">
      <stop offset="0%" stop-color="#FF8C42"/>
      <stop offset="100%" stop-color="#FFEB99"/>
    </linearGradient>
  </defs>
</svg>
