<svg xmlns="http://www.w3.org/2000/svg" viewBox="0 0 128 128" width="128" height="128">
  <!-- Heat Drop - no face, pure graphic -->

  <rect width="128" height="128" rx="20" fill="#FEF3E2"/>

  <!-- Drop shadow -->
  <path d="M68 112 C98 112 108 86 108 66 C108 40 68 8 68 8 C68 8 28 40 28 66 C28 86 38 112 68 112 Z" fill="#E85D2B" opacity="0.25" transform="translate(-2, 3)"/>

  <!-- Main drop body -->
  <path d="M64 108 C92 108 104 84 104 64 C104 38 64 8 64 8 C64 8 24 38 24 64 C24 84 36 108 64 108 Z" fill="#FF6B35"/>

  <!-- Inner layer -->
  <path d="M64 96 C84 96 92 78 92 62 C92 42 64 20 64 20 C64 20 36 42 36 62 C36 78 44 96 64 96 Z" fill="#FF8C42"/>

  <!-- Highlight -->
  <ellipse cx="50" cy="52" rx="14" ry="20" fill="#FFB347" opacity="0.85"/>

  <!-- Small shine -->
  <ellipse cx="46" cy="44" rx="6" ry="8" fill="#FFD580" opacity="0.7"/>
</svg>
