<svg xmlns="http://www.w3.org/2000/svg" viewBox="0 0 128 128" width="128" height="128">
  <!-- Heat Drop v3a - darker background variant -->

  <rect width="128" height="128" rx="20" fill="#1E1E2E"/>

  <!-- Drop shadow -->
  <path d="M68 112 C98 112 108 86 108 66 C108 40 68 8 68 8 C68 8 28 40 28 66 C28 86 38 112 68 112 Z" fill="#FF4500" opacity="0.2" transform="translate(-2, 2)"/>

  <!-- Main drop body -->
  <path d="M64 108 C92 108 104 84 104 64 C104 38 64 8 64 8 C64 8 24 38 24 64 C24 84 36 108 64 108 Z" fill="#FF6B35"/>

  <!-- Inner gradient layer -->
  <path d="M64 96 C84 96 92 78 92 62 C92 42 64 20 64 20 C64 20 36 42 36 62 C36 78 44 96 64 96 Z" fill="#FF8C42"/>

  <!-- Highlight -->
  <ellipse cx="50" cy="54" rx="14" ry="18" fill="#FFB347" opacity="0.9"/>

  <!-- Face -->
  <circle cx="48" cy="66" r="5" fill="#1E1E2E"/>
  <circle cx="76" cy="66" r="5" fill="#1E1E2E"/>
  <circle cx="49" cy="65" r="1.5" fill="white"/>
  <circle cx="77" cy="65" r="1.5" fill="white"/>

  <path d="M54 80 Q64 88 74 80" stroke="#1E1E2E" stroke-width="3" fill="none" stroke-linecap="round"/>
</svg>
