<svg xmlns="http://www.w3.org/2000/svg" viewBox="0 0 128 128" width="128" height="128">
  <!-- Rounder flame, softer look -->
  <rect width="128" height="128" rx="20" fill="#1E1E2E"/>

  <!-- Main flame - rounder base, pointed top -->
  <path d="M64 10 C64 10 46 36 42 52 C36 74 36 88 48 102 C56 112 72 112 80 102 C92 88 92 74 86 52 C82 36 64 10 64 10 Z" fill="#FF6B35"/>

  <!-- Inner -->
  <path d="M64 26 C64 26 50 46 48 58 C44 76 46 88 54 98 C60 104 68 104 74 98 C82 88 84 76 80 58 C78 46 64 26 64 26 Z" fill="#FF8C42"/>

  <!-- Core -->
  <ellipse cx="64" cy="78" rx="16" ry="18" fill="#FFB347"/>

  <!-- Highlight -->
  <ellipse cx="54" cy="60" rx="10" ry="14" fill="#FFD580" opacity="0.6"/>

  <!-- Face -->
  <circle cx="54" cy="74" r="5" fill="#1E1E2E"/>
  <circle cx="74" cy="74" r="5" fill="#1E1E2E"/>
  <circle cx="55" cy="73" r="1.5" fill="white"/>
  <circle cx="75" cy="73" r="1.5" fill="white"/>
  <path d="M58 88 Q64 94 70 88" stroke="#1E1E2E" stroke-width="3" fill="none" stroke-linecap="round"/>
</svg>
