<svg xmlns="http://www.w3.org/2000/svg" viewBox="0 0 128 128" width="128" height="128">
  <!-- Heat Drop - gradient background -->
  <defs>
    <linearGradient id="bgGrad" x1="0%" y1="0%" x2="100%" y2="100%">
      <stop offset="0%" stop-color="#2D1B4E"/>
      <stop offset="100%" stop-color="#1E1E2E"/>
    </linearGradient>
  </defs>

  <rect width="128" height="128" rx="20" fill="url(#bgGrad)"/>

  <!-- Main drop body -->
  <path d="M64 108 C92 108 104 84 104 64 C104 38 64 8 64 8 C64 8 24 38 24 64 C24 84 36 108 64 108 Z" fill="#FF6B35"/>

  <!-- Inner layer -->
  <path d="M64 96 C84 96 92 78 92 62 C92 42 64 20 64 20 C64 20 36 42 36 62 C36 78 44 96 64 96 Z" fill="#FF8C42"/>

  <!-- Core highlight -->
  <ellipse cx="52" cy="56" rx="12" ry="16" fill="#FFB347" opacity="0.85"/>

  <!-- Face -->
  <circle cx="50" cy="68" r="5" fill="#1E1E2E"/>
  <circle cx="78" cy="68" r="5" fill="#1E1E2E"/>
  <circle cx="51" cy="67" r="1.5" fill="white"/>
  <circle cx="79" cy="67" r="1.5" fill="white"/>
  <path d="M56 82 Q64 88 72 82" stroke="#1E1E2E" stroke-width="3" fill="none" stroke-linecap="round"/>
</svg>
