<svg xmlns="http://www.w3.org/2000/svg" viewBox="0 0 128 128" width="128" height="128">
  <!-- Wider flame, more presence -->
  <rect width="128" height="128" rx="20" fill="#1E1E2E"/>

  <!-- Main flame - wider base -->
  <path d="M64 8 C64 8 48 32 40 50 C28 76 24 90 36 104 C46 116 82 116 92 104 C104 90 100 76 88 50 C80 32 64 8 64 8 Z" fill="#FF6B35"/>

  <!-- Inner flame -->
  <path d="M64 24 C64 24 52 42 46 56 C38 76 36 88 44 98 C52 108 76 108 84 98 C92 88 90 76 82 56 C76 42 64 24 64 24 Z" fill="#FF8C42"/>

  <!-- Core -->
  <ellipse cx="64" cy="80" rx="22" ry="20" fill="#FFB347"/>

  <!-- Highlight -->
  <ellipse cx="50" cy="62" rx="12" ry="16" fill="#FFD580" opacity="0.6"/>

  <!-- Face -->
  <circle cx="50" cy="76" r="5" fill="#1E1E2E"/>
  <circle cx="78" cy="76" r="5" fill="#1E1E2E"/>
  <circle cx="51" cy="75" r="1.5" fill="white"/>
  <circle cx="79" cy="75" r="1.5" fill="white"/>
  <path d="M54 90 Q64 98 74 90" stroke="#1E1E2E" stroke-width="3" fill="none" stroke-linecap="round"/>
</svg>
